<?xml version="1.0" standalone="no"?>
<!DOCTYPE svg PUBLIC "-//W3C//DTD SVG 20010904//EN"
 "http://www.w3.org/TR/2001/REC-SVG-20010904/DTD/svg10.dtd">
<svg version="1.0" xmlns="http://www.w3.org/2000/svg"
 width="16.000000pt" height="16.000000pt" viewBox="0 0 16.000000 16.000000"
 preserveAspectRatio="xMidYMid meet">
<metadata>
Created by potrace 1.11, written by Peter Selinger 2001-2013
</metadata>
<g transform="translate(0.000000,16.000000) scale(0.012500,-0.012500)"
fill="#000000" stroke="none">
<path d="M210 1045 l0 -105 -105 0 -105 0 0 -110 0 -110 105 0 105 0 0 -104 0
-104 215 -7 215 -7 0 -104 0 -104 105 0 105 0 0 -105 0 -105 110 0 110 0 0
105 0 105 105 0 105 0 0 110 0 110 -105 0 -105 0 0 105 0 105 -105 0 -105 0 0
105 0 105 105 0 105 0 0 110 0 110 -430 0 -430 0 0 -105z"/>
</g>
</svg>
